<svg class="svg-icon" viewBox="0 0 1024 1024" version="1.1" xmlns="http://www.w3.org/2000/svg" fill="white">
<path d="M512 992a484.4 484.4 0 0 1-191.856-39.824 36.32 36.32 0 0 1 28.96-66.608 409.248 409.248 0 1 0-173.024-143.344 36.448 36.448 0 0 1-60.096 41.264A480.112 480.112 0 1 1 512 992z"  /><path d="M373.2 686.208a37.488 37.488 0 0 1-26.592-11.088 37.936 37.936 0 0 1 0-52.464l279.28-275.584a37.104 37.104 0 1 1 52.464 52.464L399.072 675.12a35.84 35.84 0 0 1-25.872 11.088z"  /><path d="M662 686.192a34.656 34.656 0 0 1-25.856-11.088L360.56 399.52a37.104 37.104 0 0 1 52.464-52.464l275.584 275.584a36.576 36.576 0 0 1 0 52.464 37.488 37.488 0 0 1-26.608 11.088z"  /></svg>